<svg xmlns="http://www.w3.org/2000/svg" width="1191" height="873" viewBox="0 0 1191 873">
    <defs>
        <filter id="a" width="108%" height="127.3%" x="-4%" y="-13.6%" filterUnits="objectBoundingBox">
            <feGaussianBlur in="SourceGraphic" stdDeviation="2"/>
        </filter>
        <filter id="b" width="100%" height="100%" x="0%" y="0%" filterUnits="objectBoundingBox">
            <feGaussianBlur in="SourceGraphic"/>
        </filter>
    </defs>
    <g fill="none" fill-rule="evenodd">
        <path fill="#17213F" fill-rule="nonzero" d="M1133.056 754.667c0 .561-.187 1.122-.374 1.683-1.683 10.659-4.114 21.318-7.106 31.603-.374.935-.561 1.87-.935 2.805-.374 1.309-.748 2.431-1.122 3.74-2.992 8.602-6.358 17.204-10.285 25.432-3.553 7.293-9.35 23.188-15.521 39.831-.561 1.683-1.309 3.366-1.87 5.236-2.992.561-5.984.748-8.976.935-4.488.187-8.789.187-13.277.187-1.309 0-2.431 0-3.553-.187 0 .561-.187 1.122-.187 1.683-.748 5.61-1.496 10.285-2.057 14.025-.187 1.496-.374 2.805-.561 3.74 0 .561-.187 1.122-.187 1.683-.187 1.122-.187 1.87-.374 2.431-5.049 0-10.098 0-15.147-.187-.748-.561-1.309-1.496-1.87-2.431l-129.217-.561c.187-.561.187-.935.374-1.683.187-.935.561-2.057.748-3.179.187-.561.187-1.122.374-1.683 1.122-5.049 2.618-11.594 4.114-18.7 1.122-5.423 2.431-11.407 3.553-17.204 2.244-11.407 4.488-22.814 6.171-31.416 1.122-6.732 2.057-11.968 2.244-14.025.187-2.431.187-4.862.374-7.293 0-1.683 0-3.179.187-4.675.187-10.472-.374-20.757-.748-31.229 0-2.244-.187-4.301-.187-6.358v-2.244c0-1.87 0-3.74-.187-5.61-.187-9.724-.748-19.448-1.309-28.985-.374-9.163-.935-18.326-.935-27.676 0-8.976.561-17.578 1.87-25.993 1.87-11.968 5.423-23.562 10.846-34.969 1.496-3.179 3.179-6.358 4.862-9.35 3.179-5.797 6.545-11.22 10.659-16.456 1.683-2.244 3.553-4.301 5.236-6.545l5.049-6.171c1.309-1.496 2.431-3.179 3.553-4.675a68.913 68.913 0 0 0 3.179-4.675s0-.187.187-.187c.187-.374.187-.561.374-.935.748-1.309.561-2.805 0-3.927-.187-.374-.374-.561-.748-.935v-.935c0-.561-.187-1.309-.187-1.87-.187-.748-.187-1.496-.374-2.244 0-.561-.187-.935-.187-1.496 0-.561-.187-.935-.187-1.496-.187-.748-.374-1.683-.561-2.431v-.187c-.561.187-1.122.374-1.87.561h-.187c-.187 0-.374.187-.561.187-2.805-2.805-5.423-5.797-7.854-8.789-5.049-11.407-11.407-22.253-18.513-32.725a129.635 129.635 0 0 0-2.992-7.667c-.187-.374-.187-.561-.374-.935-.748-1.496-1.309-2.992-2.057-4.488-1.309-2.618-2.992-5.236-4.862-7.48 0-.935-.187-1.87-.374-2.618-.374-2.431-.374-4.862-.374-7.293v-1.309c0-.935.187-1.87.187-2.805.187-.748.187-1.683.374-2.431.187-.935.374-1.683.561-2.618a42.669 42.669 0 0 1 3.927-9.537h-1.122c-1.496 0-2.805.187-4.301.374s-2.805.561-4.114.935c-.935.374-1.87.561-2.805.935-1.309.561-2.618 1.122-4.114 1.87-1.309.561-2.618 1.309-3.927 1.87-.374.187-.561.187-.935.374s-.561.187-.748.187c4.675-.748 9.163-1.496 13.651-2.244a5.337 5.337 0 0 1 2.431 0c.374 0 .561.187.935.374 1.122.748 1.122 2.431.561 3.553a2.581 2.581 0 0 1-.561.748c-.374.561-1.122 1.122-1.683 1.496-.187.187-.374.374-.561.374-8.228 5.61-17.391 10.472-26.928 13.651l-3.366 1.122-1.683.561c-1.683.374-3.366.935-5.236 1.309-1.122.187-2.244.374-3.553.748-1.122.187-2.244.374-3.553.561-1.122.187-2.244.187-3.553.374-1.683.187-3.553.187-5.236.187-.374.561-.561 1.122-.935 1.683-1.309 2.431-2.805 4.862-4.114 7.293-.187.374-.374.561-.561.935-1.496 2.805-2.992 5.61-4.675 8.415-1.683 2.992-3.179 5.984-4.675 8.976l-.187.187s-.187.187-.187.374c-1.496 2.992-3.179 5.984-4.675 9.163-1.496 3.179-2.992 6.171-4.488 9.35-1.496 2.992-2.805 5.984-4.114 8.976 0 .187-.187.374-.187.561l-8.415 19.074c-.374-7.854 3.927-19.261 5.049-23.188v-.187c2.244-7.293 4.488-14.773 7.106-22.066 2.992-8.602 6.358-17.017 10.472-25.058 2.244-4.301 5.049-8.415 7.667-12.716 2.244-3.74 4.301-7.854 7.106-11.407.561-.187.935-.374 1.496-.748 4.301-1.87 8.789-3.553 13.464-4.862 7.106-2.057 14.399-3.74 21.692-4.675 6.358-.935 12.716-1.122 18.887-.935 1.87.187 3.179-.748 3.927-2.057.187 0 .374.187.748.187.374.187.561.187.935.374h.187c0-.374 0-.561.187-.935.187-.748.187-1.496.374-2.057 0-.374.187-.748.187-1.122.187-.374.187-.748.374-.935.187-.935.561-1.683.935-2.431.561-1.496 1.309-2.992 2.057-4.301.187-.374.561-.935.748-1.309a8.303 8.303 0 0 1 1.496-2.057c.374-.561.748-.935 1.309-1.496.561-.561.935-1.122 1.496-1.496.561-.374.935-.935 1.496-1.309l.187-.187 1.683-1.122c8.415-5.797 18.7-7.667 28.985-9.163 3.553-.374 7.106-.748 10.659-.748h5.236c4.862 1.496 9.537 3.366 14.025 5.423 1.309.561 2.618 1.309 3.74 1.87 10.098 5.049 20.757 12.155 26.741 21.505 4.301 6.545 6.171 14.212 10.846 20.57.935 1.309 1.87 2.431 2.992 3.74 4.114 4.675 8.602 8.789 12.529 13.464 3.927 4.675 7.106 10.472 7.106 16.643V520.543a28.357 28.357 0 0 1-2.805 9.35c-.935 1.87-2.057 3.553-3.366 5.236-1.122 1.496-2.431 2.805-3.74 4.114-1.87 1.683-3.74 3.179-5.797 4.488-3.179 2.057-6.732 3.366-10.472 4.488-1.496.374-2.992.748-4.301 1.122-4.862 1.122-10.098 1.683-14.96 1.87-1.496 0-2.431.748-3.179 1.496H1029.084c0 .374 0 .561.187.935l.561 2.805c.187.748.374 1.309.374 2.057.374 1.496.748 2.805 1.309 4.114.187.374.187.748.374 1.122v.187c.187.374.374.935.561 1.309.187.561.374 1.122.561 1.496.374.748.561 1.309.935 2.057.561 1.309 1.309 2.618 2.057 3.74.187.374.561.935.935 1.309.374.374.561.935.935 1.309.374.374.561.935.935 1.309.374 0 .748 0 1.122-.187h.187c.374 0 .561 0 .748-.187 1.87-.187 2.805-.374 2.805-.374h.187c-.187-.374-.187-.748-.187-.935 0-.748.374-1.309 1.309-1.683.187 0 .187 0 .374-.187h.748c.748-.187 1.683-.187 2.805-.187l-.374-.374c.187.187.374.187.561.374.561 0 1.309 0 2.057.187 4.488.561 8.415 2.805 12.155 5.236.935.561 1.683 1.122 2.431 1.87.935.561 1.683 1.309 2.431 1.87 1.683 1.309 3.179 2.805 4.488 4.301l1.122 1.122 1.122 1.122c.374.374.748.748.935 1.122.561.748 1.309 1.683 1.87 2.431.935 1.309 1.87 2.618 2.618 3.927-.187.187-.187.374-.187.561-.561 1.683 0 3.74 2.244 4.675.374.187.935.374 1.309.748 4.301 2.244 8.228 4.862 11.968 7.667l3.366 2.805c.748.748 1.683 1.496 2.431 2.244 5.984 5.61 11.22 12.342 15.521 19.635 1.683 2.805 3.179 5.61 4.675 8.602 0 .187.187.374.187.561 2.057 4.488 3.927 9.163 5.61 13.838 5.797 17.017 8.415 35.156 8.602 53.482v.748c.187 15.147-.935 29.546-2.992 43.197z" opacity=".15"/>
        <path fill="#118CBE" fill-rule="nonzero" d="M1201.685 559.813l-27.302 196.911-768.944-4.675v-54.584c22.44-9.724 44.693-19.448 66.946-29.172 10.098-4.488 20.757-78.976 31.79-78.789h1.683c15.708.748 29.359-20.715 43.571-13.983 33.473 15.895 72.743 17.391 109.208 9.911 25.993-5.236 50.864-14.773 74.987-25.993a1007.814 1007.814 0 0 0 28.611-14.025c12.155-6.358 24.497-12.903 37.961-15.521 6.171-1.309 12.903-1.683 19.261-.748 7.293.935 14.399 3.553 20.009 8.228 6.171 5.049 10.472 12.155 16.082 17.765 21.692 21.318 57.596 17.017 87.89 11.22 27.302-5.236 54.791-10.659 82.28-15.895 19.261-3.74 38.709-7.48 58.344-7.106 13.277.187 26.554 2.244 39.644 4.488 25.806 3.74 51.986 7.854 77.979 11.968z"/>
        <path fill="#056998" fill-rule="nonzero" d="M507.535 610.999c-.187 4.675.748 9.35.374 14.025-1.496 13.65-14.212 22.627-25.432 30.294-11.033 7.667-21.879 16.269-28.61 27.863-4.115 7.293-6.546 15.52-11.408 22.44-4.114 5.984-13.65 85.946-20.757 85.572-35.531 25.88-58.186 34.538-67.964 25.973-14.729-12.902 33.703-135.668 56.143-145.392 22.44-9.724 59.132-68.255 81.385-77.98 10.098-4.487 20.853-11.495 31.886-11.308h1.683c-2.992 2.431-7.202 7.008-9.633 9.439-4.488 5.236-7.293 11.968-7.667 19.074z"/>
        <path fill="#118CBE" fill-rule="nonzero" d="M1235.158 560.488l-8.415 235.165-.187 6.542v.187l-1.122 32.901-1.309 34.022-.374 11.964v.187l-.187 6.169h-21.505l-135.014-.561c-.187 1.122-.187 1.87-.374 2.43-5.049 0-10.098 0-15.147-.187-.748-.56-1.309-1.495-1.87-2.43l-129.217-.56c0 .373-.187.747-.187 1.12l-5.797-.186v-.935h-7.293l-43.01-.187-37.961-.187h-42.823l-227.766-.934-66.198-.374-28.611-.187c-.374-.56-.561-1.122-.935-1.496H455.742c-.187-.373-.374-.747-.748-1.121h-7.293c-.187 1.495-.187 2.99-.374 4.3-2.244-1.31-4.675-2.805-6.732-4.3h-16.456a56.56 56.56 0 0 1-6.171 3.925c-2.431 1.496-5.049 2.804-7.48 4.113-1.309-2.243-2.618-4.486-3.366-7.104-.187-.373-.187-.747-.374-1.121h-55.539v-61.066c10.098-3.926 35.934 37.636 29.546-13.085-6.388-50.722 16.456-78.575 24.497-83.249 0 0 .187 0 .187-.187.187 0 .187-.186.374-.186 1.496-.935 2.992-1.87 4.488-2.618 2.244-1.495 4.675-2.804 6.919-4.299 1.496-.935 2.805-1.87 4.301-2.617 1.309-.748 2.431-1.683 3.74-2.43 2.618-1.683 5.049-3.365 7.667-5.048.748-.56 1.496-.934 2.244-1.495 3.179-2.243 6.545-4.486 9.724-6.73 1.683-1.121 3.366-2.43 4.862-3.551l6.732-5.048c.187-.187.374-.374.561-.374l3.179-2.43c40.766-31.031 78.914-67.11 116.875-101.692.935-.935 2.057-1.87 2.992-2.805 13.838-12.524 30.668-25.797 48.433-25.984 3.366 0 6.919.374 10.285 1.309 8.976 2.43 16.456 8.599 23.562 14.581 3.927 3.178 7.667 6.356 11.594 9.534 15.147 12.711 30.481 25.236 45.628 37.948l29.172 24.114c.374.187.561.374.935.748 14.212 11.777 29.172 23.74 47.124 28.04 25.432 5.982 51.425-4.673 74.987-15.702 6.919-3.365 13.838-6.73 20.57-10.095.561-.374 1.309-.56 1.87-.935 3.553-1.869 7.293-3.551 10.846-5.42 5.423-2.805 10.846-5.609 16.269-8.6 1.683-.934 3.553-1.869 5.236-2.804 3.366-1.87 6.919-3.738 10.285-5.608 3.366-1.87 6.732-3.738 9.911-5.608 1.87-1.121 3.927-2.243 5.797-3.365 6.919-4.112 13.838-8.225 20.757-12.524 2.805-1.683 5.423-3.365 8.228-5.048 2.431-1.495 4.862-2.99 7.293-4.673.187-.187.561-.374.748-.374.935-.56 1.683-1.121 2.431-1.495 4.301-2.804 8.602-5.608 12.716-8.412.561-.374.935-.561 1.496-.935 1.496-.935 2.805-1.87 4.301-2.991 1.496-.935 2.805-1.87 4.301-2.991 1.496-.935 2.805-1.87 4.301-2.804 3.179-2.056 6.171-4.3 9.35-6.543.935-.747 1.87-1.308 2.805-2.056.187-.187.374-.187.374-.374 1.309-.935 2.805-1.87 4.114-2.804 2.244-1.682 4.675-3.365 6.919-5.047 1.683-1.309 3.366-2.43 5.049-3.739.748-.56 1.683-1.122 2.431-1.87.374-.186.748-.56 1.122-.934 1.87-1.308 3.553-2.617 5.236-3.926.374-.187.561-.373.935-.56 1.496-.935 2.805-2.057 4.301-2.991 1.683-1.309 3.366-2.43 5.236-3.552 1.309-.935 2.431-1.683 3.74-2.617l1.683-1.122c.935-.56 1.87-1.308 2.805-1.87.935-.56 1.87-1.12 2.618-1.869.187-.186.374-.186.561-.373 1.122-.748 2.057-1.309 3.179-2.057.748-.56 1.683-.934 2.431-1.495.187-.187.374-.374.748-.374.374-.187.561-.374.935-.56.187 0 .187-.188.374-.188 1.122-.56 2.057-1.308 3.179-1.87.561-.373.935-.56 1.496-.934a125.382 125.382 0 0 1 6.919-3.738c1.122-.561 2.431-1.122 3.553-1.683 1.122-.56 2.431-1.122 3.553-1.682 1.122-.374 2.057-.935 3.179-1.309l2.805-1.121c1.683-.561 3.366-1.309 5.049-1.87 12.716-4.3 26.554-6.356 40.018-5.421 15.147 1.122 29.546 6.169 40.953 16.076 1.87 1.496 3.553 3.178 5.236 5.048 7.48 7.851 13.651 17.385 21.131 24.862l.561.56c.561.562 1.309 1.31 2.057 1.87 2.805 2.057 5.797 4.3 9.35 5.982z"/>
        <path fill="#056998" fill-rule="nonzero" d="M819.27 528.958c-5.797 4.488-11.407 9.35-15.708 15.521-5.423 7.48-8.415 17.391-5.797 26.18.748 2.805 2.057 5.236 2.244 8.041.748 8.789-8.041 14.96-15.147 20.196-16.456 11.781-29.172 28.798-36.091 47.872-3.366 8.976-5.797 19.261-13.464 24.871-6.919 5.049-16.456 5.236-23.749 9.724 4.488-3.553 4.675-10.285 3.366-15.895-1.309-5.61-4.114-10.846-4.114-16.643-.187-5.236 2.057-10.472 3.927-15.334 9.35-23.749 15.708-48.807 19.074-74.052a1007.814 1007.814 0 0 0 28.611-14.025c12.155-6.358 24.497-12.903 37.961-15.521 5.984-1.496 12.529-1.683 18.887-.935zM628.53 605.242c-9.424 8.143-17.889 17.563-25.076 27.782a150.457 150.457 0 0 0-19.486 38.479c-1.118 3.193-2.077 6.546-1.278 9.899.958 3.512 3.833 6.227 5.59 9.42 4.792 7.823 2.875 18.202-1.917 26.025-4.95 7.824-12.298 13.572-19.486 19.32-8.625 7.025-16.93 14.37-25.076 22.033a325.632 325.632 0 0 0-14.854 14.849c-1.118 1.117-2.236 2.235-3.354 3.512-2.715 2.874-5.59 5.908-8.146 8.942-.48.638-1.118 1.277-1.597 1.916a93.27 93.27 0 0 0-5.111 6.067c-2.236 2.554-4.313 5.269-6.23 7.983-3.034 4.151-5.91 8.462-8.465 12.933-.32.638-.798 1.277-1.118 1.916-1.118 1.916-2.076 3.991-3.035 6.067-1.118 2.235-2.076 4.63-3.034 7.025-2.077 5.269-4.153 10.698-6.23 15.966-.958 2.236-1.756 4.471-2.715 6.547-.16.319-.32.798-.479 1.117-1.597 3.353-3.194 6.547-4.951 9.74-.64.958-1.118 1.916-1.757 2.874-.16.16-.32.479-.32.638-1.437 2.236-3.034 4.311-4.632 6.387-1.437 1.756-3.034 3.353-4.631 4.79-2.237 2.076-4.632 4.151-7.188 5.907a48.309 48.309 0 0 1-5.27 3.353c-2.077 1.278-4.313 2.395-6.39 3.513-1.118-1.916-2.236-3.832-2.875-6.067-.16-.32-.16-.639-.32-.958h-47.436l-94.133-6.546c4.341-1.688 24.024-46.045 51.953-74.455 27.559-28.031 63.37-40.118 67.416-42.1 7.027-3.513 14.055-7.345 20.923-11.336 0 0 .16 0 .16-.16.16 0 .16-.16.32-.16 1.277-.798 2.555-1.596 3.833-2.235 1.916-1.277 3.993-2.395 5.91-3.672 1.277-.798 2.395-1.597 3.673-2.235 1.118-.639 2.076-1.437 3.194-2.076 2.236-1.437 4.313-2.874 6.549-4.31.639-.48 1.278-.8 1.917-1.278 2.715-1.916 5.59-3.832 8.305-5.748 1.438-.958 2.875-2.076 4.153-3.034l5.75-4.31c.16-.16.32-.32.48-.32l2.714-2.076c34.82-26.504 67.403-57.319 99.827-86.857.798-.798 1.756-1.596 2.555-2.395 11.82-11.176 26.194-22.512 41.368-22.672z"/>
        <path fill="#1899CB" fill-rule="nonzero" d="M1093.973 573.838c-3.74 7.293-7.293 15.708-4.114 23.375 1.496 3.927 4.675 6.919 6.732 10.472 6.545 10.846 3.74 25.245-3.366 35.717-7.106 10.472-17.765 17.765-28.05 25.245-48.994 35.717-92.939 78.353-130.152 126.412-10.659 13.838-22.253 28.985-39.083 32.725-5.797 1.309-11.968 1.122-17.765 1.87-9.724 1.309-19.074 5.61-26.554 11.968 8.041-12.903 16.456-26.367 18.139-41.701 1.309-11.033-1.122-22.066-.935-33.099.374-23.936 12.529-46.002 19.822-68.816 6.171-19.074 9.35-39.27 16.269-57.783 48.059-24.871 94.061-53.482 137.819-85.272 23.001-16.83 46.002-34.782 72.93-43.945 12.716-4.301 26.554-6.358 40.018-5.423-25.806 17.204-47.311 40.953-61.71 68.255z"/>
        <path fill="#057AAC" fill-rule="nonzero" d="M1227.491 881.827v5.984H1201.685l-135.014-.561c-.187 1.122-.187 1.87-.374 2.431-5.049 0-10.098 0-15.147-.187-.748-.561-1.309-1.496-1.87-2.431l-129.217-.561c0 .374-.187.748-.187 1.122l-5.797-.187v-.935h-7.293l-43.01-.187-37.961-.187h-42.823l-227.766-.935-66.198-.374-28.611-.187c-.374-.561-.561-1.122-.935-1.496H455.368c-.187-.374-.374-.748-.748-1.122h-7.293c-.187 1.496-.187 2.992-.374 4.301-2.244-1.309-4.675-2.805-6.732-4.301h-16.456a56.557 56.557 0 0 1-6.171 3.927c-2.431 1.496-5.049 2.805-7.48 4.114-1.309-2.244-2.618-4.488-3.366-7.106-.187-.374-.187-.748-.374-1.122H359.25l.187-2.057c6.732-5.236 14.025-10.098 21.318-14.212a217.44 217.44 0 0 1 30.481-14.586c7.48-2.992 14.96-5.61 22.627-7.854.935-.187 1.683-.561 2.618-.748.561-.187 1.122-.374 1.683-.374 2.805-.748 5.423-1.496 8.228-2.244 2.057-.561 4.114-1.122 6.358-1.496.935-.187 1.683-.374 2.618-.561 5.423-1.309 10.846-2.244 16.269-3.366 8.041-1.496 16.082-2.805 24.123-3.74 1.309-.187 2.431-.374 3.74-.374 47.311-5.984 95.183-6.358 142.307-13.838 13.277-2.057 27.115-5.049 37.774-13.277 5.797-4.488 10.285-10.285 16.082-14.96 19.448-16.082 47.311-14.96 72.556-13.277 6.358.374 12.716.935 18.887 1.309 2.992.187 5.984.374 8.789.561H797.578c1.496.187 2.992.187 4.488.374.561 0 1.309 0 1.87.187 5.049.374 10.098.748 15.334 1.122h.935c11.033.748 21.879 1.496 32.912 2.244.561 0 1.309 0 1.87.187 1.309 0 2.431.187 3.74.187h.748c1.87.187 3.553.187 5.236.374 1.683.187 3.366.187 4.862.374 2.805.187 5.797.374 8.602.561 4.488.374 8.976.561 13.464.935.561 0 1.309 0 1.87.187 1.122 0 2.244.187 3.366.187h3.366c.935 0 1.87.187 2.805.187 3.927.187 7.854.561 11.781.748 7.854.561 15.521 1.122 23.375 1.683 1.122.187 2.244.187 3.366.187l31.977 2.244H974.106l5.61.374h2.618l41.514.374 12.716.187 32.351.374 10.098.187h.561l12.529.187 32.538.374 16.082.187 9.911.187h26.18l12.342.187h1.87l10.659.187 21.879.187H1226.369l.374 3.927 2.992 40.766 2.431 32.912.935 12.716c-1.87 0-3.74-.187-5.61-.187z"/>
        <path fill="#118CBE" fill-rule="nonzero" d="M831.799 795.994c-5.797 0-23.375-3.366-28.237-.187-2.057 1.309-3.74 3.179-4.301 5.236-2.057 6.919 5.797 11.594 13.09 12.529 8.789 1.122 17.952-1.309 26.367 3.179 3.366 1.87 5.423 5.236 5.049 8.602-.935 7.106-11.22 8.602-19.074 8.602-37.026-.187-77.231-1.122-106.403 19.448-3.179 2.244-4.862 5.984-3.927 9.35 1.496 5.049 7.48 5.984 12.903 6.545 61.149 5.423 122.672 10.846 184.195 11.407 7.106 0 14.586 0 20.009-4.488 3.179-2.618 4.488-6.545 2.618-9.911-2.244-4.301-7.854-4.862-12.716-5.236-23.749-1.87-47.311-3.927-71.06-5.797-6.732-.561-7.106-9.163-.374-9.911h.187c6.919-.748 14.025 0 20.944.561 41.888 3.179 84.711-2.618 123.607-16.643 2.992-1.122 5.61-3.179 6.732-5.797 2.992-6.545-4.301-11.22-10.846-13.838-25.619-10.285-56.848 9.163-83.963 5.984-30.294-3.74-44.506-20.196-74.8-19.635zM1227.491 881.827v5.984H1201.685l-135.014-.561c-.187 1.122-.187 1.87-.374 2.431-5.049 0-10.098 0-15.147-.187-.748-.561-1.309-1.496-1.87-2.431-.187-.374-.187-.561-.374-.935 0-.187-.187-.374-.187-.748-.187-1.309-.187-2.618.187-3.74.561-1.87 2.057-3.74 3.74-5.049a80.097 80.097 0 0 1 16.643-9.163c1.309-.561 2.618-1.122 3.927-1.496 7.667-2.805 15.708-4.862 24.123-6.171a152.255 152.255 0 0 1 12.903-1.683c2.057-.187 4.114-.374 6.171-.374 2.057-.187 4.301-.187 6.358-.374 1.122 0 2.244 0 3.366-.187 3.179-.187 6.358-.187 9.537-.187h23.375c4.488 0 9.724-.374 13.464-2.057.374-.187.935-.374 1.309-.748 2.244-1.309 3.74-3.179 4.114-5.797.374-2.431-.748-5.049-2.618-6.732-.748-.748-1.496-1.309-2.431-1.683-5.423-2.992-11.407-2.992-17.204-2.805h-6.358c-.935 0-1.87-.187-2.805-.187-.187 0-.374 0-.561-.187-4.114-.748-8.415-2.618-10.846-5.423-1.496-1.87-2.244-3.927-1.683-6.545 0-.187 0-.374.187-.561.748-2.057 2.244-3.927 4.301-5.236 1.309-.935 3.74-1.122 6.545-1.309 2.805 0 5.984.187 9.163.374 5.049.374 9.724 1.122 12.342 1.122h.374c5.797 0 11.033.561 15.708 1.496 6.919 1.309 13.09 3.553 19.261 5.984 6.919 2.805 13.838 5.797 21.505 8.228h.187l1.683.561c.561.187 1.122.374 1.683.374.935.187 1.87.561 2.805.748l2.431 32.912h-9.163c-5.797 0-11.781-.374-17.578-.748-1.309-.187-2.431-.187-3.74-.374-5.797-.374-11.594-.935-17.204-.187h-.187c-6.732.748-6.358 9.35.374 9.911 5.61.374 11.407.935 17.017 1.496 7.106.561 14.212 1.122 21.131 1.683h.561a81.78 81.78 0 0 1 4.675.561zM721.656 838.069c-12.716 1.87-25.806.561-38.522-.935l2.057.935c-8.789.187-17.578 1.122-26.554 1.496-10.098.561-21.505-1.87-31.416.935-12.342 3.553-9.35 9.724-2.805 16.83 17.017 18.887-37.4 22.253-46.937 23.749-.748.187-1.683.187-2.431.374-3.366.561-6.732 1.122-9.911 1.496-3.366.561-6.545.935-9.911 1.496l-66.198-.374-28.611-.187c-.374-.561-.561-1.122-.935-1.496l1.683-1.122c4.675-2.805 11.033-4.488 14.586-5.61 6.732-2.244 13.464-3.927 20.383-5.423 21.879-4.862 44.319-6.358 66.759-7.48 6.358-.374 34.969-1.122 30.294-12.529-4.488-10.659-29.92-5.61-37.4-4.488-6.545.935-33.473 8.789-56.474 13.09-14.399 2.618-27.115 3.74-32.351.935-1.122-.561-2.057-1.496-2.431-2.431-2.618-7.48 9.163-12.529 24.31-16.082 3.553-.748 7.106-1.496 10.846-2.244 18.7-3.179 38.709-4.488 43.01-4.862 37.213-2.992 74.426-4.301 111.452-7.293 17.952-1.496 35.717-2.805 53.482-5.61 7.106-1.122 16.83-2.244 23.936 0 13.838 4.675-1.87 15.521-9.911 16.83z"/>
        <path fill="#52B5D7" fill-rule="nonzero" d="M1172.7 851.346c-2.057-2.244-4.301-1.683-6.171-.748-5.61 2.618-10.098 7.667-11.968 13.464.748-4.675.561-9.35-.561-13.838-1.122-4.301-3.553-8.789-8.415-8.976-2.805 0-5.423 1.683-6.919 4.114-2.992 4.675-2.057 10.285-1.309 15.334-2.431-5.984-4.862-12.155-10.846-15.521-2.805-1.683-6.358-1.87-9.537-.561-.748.374-1.496.748-2.057 1.496-.935 1.309-.748 2.992-.561 4.488 1.122 5.797 3.74 11.407 7.48 15.895-3.179-4.114-8.415-6.171-13.651-5.61-.748 0-1.309.187-1.87.748-.374.374-.374.935-.561 1.496-.187 1.87 0 3.74.561 5.61 3.179 8.789 11.407 12.903 19.635 13.838l19.448 2.057c6.732-2.618 13.464-5.236 18.887-9.911 5.797-4.675 10.098-11.968 9.35-19.448.561-1.309 0-2.805-.935-3.927z"/>
        <path fill="#646D50" fill-rule="nonzero" d="M656.393 522.974l.748-2.805c.374 1.122 0 2.057-.748 2.805z"/>
        <g stroke="#BEDEED" stroke-linecap="round" stroke-linejoin="round" stroke-width="1.834">
            <path d="M462.661 777.294c-1.87-6.545-4.862-13.277-3.553-20.009 1.683-8.602 9.911-17.204 5.61-24.871-3.74-6.545-13.838-5.984-18.513-11.781-3.179-3.74-3.179-9.163-2.618-14.212 1.122-9.911 3.927-19.822 2.431-29.733-1.496-9.911-9.35-19.822-19.261-19.261-5.797.374-10.846 4.114-14.399 8.789-11.407 15.521-7.106 37.026-6.545 56.287 0 2.618 0 5.236-.935 7.667-2.244 5.049-8.415 7.106-12.529 10.659-6.732 5.797-7.854 17.017-2.431 24.123 2.992 3.927 7.667 6.919 8.976 11.594 1.87 6.545-3.74 12.716-6.919 18.887-4.675 8.976-4.301 20.383 1.122 29.172 5.423 8.602 15.521 14.025 25.619 13.838l19.822.374c20.009-12.155 30.294-38.522 24.123-61.523zM426.57 657.053c-8.228 60.214-7.293 121.737 2.992 181.764"/>
            <path d="M440.969 677.436c-2.057 4.488-4.114 8.789-7.106 12.716-2.992 3.927-6.919 7.106-11.594 8.602M435.92 703.429c-2.805 7.293-7.854 13.464-14.212 17.765M435.546 726.617a53.567 53.567 0 0 1-14.773 18.139M446.953 738.585a94.435 94.435 0 0 1-25.806 28.611M447.14 759.342c-5.423 9.163-12.342 17.578-20.57 24.31-1.122.935-2.431 1.87-3.927 2.244M452.937 775.798c-7.293 11.594-15.895 23.188-27.863 29.546M453.498 793.75c-5.61 11.407-14.773 20.757-25.993 26.554M410.862 683.981c.748 6.545 5.423 12.342 11.407 14.586M412.545 709.974c2.244 4.114 5.236 7.854 8.976 10.846M413.667 735.593c1.309 3.366 4.114 6.171 7.667 7.48M403.756 749.431c4.488 7.293 10.846 13.464 18.513 17.578M398.894 765.139a143.085 143.085 0 0 0 15.334 14.773c2.618 2.244 5.61 4.301 9.163 4.488M406.187 790.758c4.114 5.984 11.033 10.098 18.326 10.846M402.821 806.092c6.732 6.732 15.147 11.781 24.31 14.399M393.284 818.247c5.236 4.301 10.472 8.602 16.456 11.594 5.984 2.992 12.903 4.675 19.448 3.179M431.806 672.013c-2.805 3.74-5.61 7.667-8.415 11.407M416.846 674.07c1.309 3.366 3.553 6.171 6.358 8.228M453.498 813.198c-6.171 8.602-14.773 15.708-24.497 19.822"/>
        </g>
        <g fill="#3C6995" fill-rule="nonzero">
            <path d="M906.412 859.574c-.187 5.049 0 10.285.187 15.334v11.407l-43.01-.187-37.961-.187c-.187-.561-.187-1.122-.374-1.683l-.561-2.805a176.418 176.418 0 0 1-1.122-4.675c-.748-2.805-1.496-5.797-2.244-8.602-3.179-11.968-7.293-24.123-11.781-34.595-5.61-12.903-11.968-23.562-18.7-29.359 3.179.374 5.984 1.309 8.789 2.805 2.431 1.122 4.862 2.805 7.106 4.301.748.561 1.496.935 2.057 1.496 5.61 4.114 11.033 8.602 16.082 13.464l1.87 1.87c1.122 1.122 2.244 2.244 3.366 3.553.561.561.935 1.122 1.496 1.683l.187.187c2.992 3.553 5.797 7.106 8.415 10.846a96.676 96.676 0 0 1 7.293 12.716c1.683 3.74 3.366 7.667 4.488 11.781.561 1.87 1.122 3.74 1.496 5.797l-.561-3.366c-.374-2.431-.748-4.862-1.309-7.48-.561-2.992-1.122-5.984-1.87-8.976 0-.374-.187-.748-.187-1.122-.561-2.805-1.309-5.61-2.057-8.228-1.496-5.797-3.366-11.594-5.236-17.204-1.309-3.927-2.805-7.854-4.301-11.594-2.805-7.106-5.984-14.025-9.35-20.757-2.992-5.984-6.358-11.968-9.911-17.765-1.122-1.87-2.431-3.927-3.553-5.797 1.496 1.87 3.179 3.74 4.675 5.797a198.204 198.204 0 0 1 12.155 17.765c8.228 13.277 15.521 27.863 21.505 42.075.187.374.374.935.561 1.309.748 1.683 1.309 3.366 2.057 5.236 1.309 3.366 2.618 6.732 3.553 9.911.187.374.374.748.374 1.122.187.374.187.748.374.935v-.935c.187-3.74.374-7.293.561-11.033.187-2.992.374-6.171.374-9.163v-.561c.187-4.114.374-8.041.561-12.155 0-1.496.187-2.805.187-4.301 0-.935 0-1.87.187-2.618.187-4.488.374-9.163.748-13.651.187-2.618.187-5.236.374-7.854.187-4.488.374-8.602.561-12.716.561-9.163 1.122-17.765 1.87-26.554 1.87-19.635 5.236-40.766 12.529-74.052l-.561 45.067c0 9.724-.187 19.448-.187 29.172v52.921c0 7.293 0 14.586.187 21.879 0 5.423.187 10.846.187 16.269 0 2.805 0 5.61.187 8.602v-.187c.561-2.805 1.122-5.423 1.87-8.228 0-.187.187-.374.187-.374 1.496-5.61 3.366-11.22 5.797-16.456 2.431-5.423 5.236-10.659 8.602-15.708.187-.374.374-.748.748-.935 0 .374-.187.748-.187 1.122-1.122 5.049-2.057 9.911-2.805 14.96-.935 5.984-1.683 11.781-2.057 17.765-.374 3.927-.561 8.041-.748 11.968a377.187 377.187 0 0 0 0 20.57c-.187-7.106 1.122-13.838 3.366-20.196 1.496-4.114 3.366-8.228 5.423-12.342 3.927-7.667 8.789-15.334 13.277-23.001-2.057 7.48-3.553 14.96-4.675 22.627 0 3.927-.374 8.415-.561 13.09z"/>
            <path d="M861.532 860.322h-1.87c2.057-40.766-4.488-82.28-18.887-120.428l1.683-.561c14.586 38.148 21.318 80.036 19.074 120.989zM878.736 854.338c-1.122-35.156 16.082-68.629 31.416-93.687l1.496.935c-15.147 25.058-32.164 58.157-31.042 92.752h-1.87zM853.865 872.477c-14.586-34.595-34.221-66.572-58.157-95.37l1.496-1.122a384.714 384.714 0 0 1 58.531 95.931l-1.87.561z"/>
            <path d="M845.824 753.171c-2.244-1.496-4.675-2.805-7.106-3.74l.561-1.683c2.618.935 5.236 2.431 7.667 3.927l-1.122 1.496zM841.35 757.998l.934-1.62 7.288 4.207-.935 1.62zM843.089 767.683l.694-1.736 7.987 3.194-.694 1.736zM852.93 780.099c-.187 0-.561 0-.748-.187l-6.171-3.179.935-1.683 6.171 3.179s-.374-.187-.561.187l.748.374.561-.935.374 1.309c-.187.748-.748.935-1.309.935zM855.548 788.701l-8.415-3.366.561-1.683 8.602 3.366zM849.862 791.792l.953-1.61 6.276 3.716-.953 1.609zM857.792 802.352c-1.87-.748-3.366-1.683-5.049-2.992l1.122-1.496c1.309 1.122 2.992 2.057 4.488 2.618l-.561 1.87zM853.438 807.6l1.19-1.442 5.626 4.64-1.19 1.443zM860.597 821.426c-2.992-1.309-5.797-3.366-8.041-5.797l1.309-1.122c1.87 2.244 4.488 4.114 7.293 5.423l-.561 1.496zM861.158 830.215c-2.431-.935-4.675-2.057-6.732-3.553l1.122-1.496c1.87 1.309 4.114 2.431 6.358 3.366l-.748 1.683zM900.056 766.944l1.863-.17.799 8.753-1.863.17zM897.81 786.27h-.374l-.561-.935c0-.187.187-.374.187-.561l-1.309-8.228 1.87-.374 1.309 8.602c0 .374 0 .748-.187.748v.374c-.374.187-.748.374-.935.374zM892.948 792.628l-.187-1.122c-.187-2.992-.748-5.797-1.309-8.602l1.87-.374c.748 3.366 1.309 6.732 1.496 10.098h-1.87zM890.33 799.921c-.935-2.431-1.683-4.862-1.87-7.48l1.87-.187c.374 2.431.935 4.862 1.87 7.106l-1.87.561zM887.338 806.092a42.732 42.732 0 0 1-2.244-6.919l1.87-.374c.561 2.244 1.122 4.488 2.244 6.545l-1.87.748zM884.907 811.889c-.935-2.431-1.87-4.862-2.431-7.48l1.683-.561c.561 2.431 1.496 4.862 2.431 7.106l-1.683.935zM880.137 812.25l1.666-.85 3.056 5.999-1.666.849z"/>
            <path d="M844.341 751.514l3.697-6.502 1.625.924-3.696 6.503zM848.068 762.334l-1.309-1.309c2.057-2.057 3.74-4.114 5.049-6.732l1.683.935a34.018 34.018 0 0 1-5.423 7.106zM850.873 770.562l-.935-1.683c2.618-1.309 4.675-3.553 6.171-5.984l1.683.935a16.047 16.047 0 0 1-6.919 6.732zM853.678 779.351l-1.309-1.309c1.87-1.683 3.553-3.74 4.862-5.797l1.496 1.122a29.615 29.615 0 0 1-5.049 5.984zM855.735 788.327l-1.496-1.122c1.496-2.244 3.179-4.488 4.488-6.732l1.496.935c-1.309 2.431-2.992 4.675-4.488 6.919zM856.857 795.433l-1.309-1.309a48.693 48.693 0 0 0 5.61-6.732l1.496.935c-1.683 2.618-3.553 5.049-5.797 7.106zM857.439 801.355l4.256-4.972 1.42 1.216-4.255 4.972zM859.662 810.767l-1.122-1.496c1.309-.935 2.244-2.057 3.179-3.366l1.496 1.122c-.935 1.309-2.244 2.618-3.553 3.74zM860.223 819.556l-.561-1.683c1.309-.374 2.244-1.309 2.992-2.431l1.683.935c-.935 1.496-2.431 2.805-4.114 3.179zM883.972 818.808l-.561-1.683c1.87-.561 3.74-1.496 5.423-2.431l.935 1.683c-1.87.748-3.74 1.683-5.797 2.431zM886.392 810.639l6.053-3.351.906 1.636-6.053 3.35zM889.021 805.905l-.748-1.683c2.244-.935 4.675-2.244 6.732-3.553l.935 1.496c-2.057 1.309-4.488 2.618-6.919 3.74zM892.574 799.36l-1.122-1.309a18.62 18.62 0 0 1 5.423-3.366l.748 1.683c-1.87.748-3.553 1.683-5.049 2.992zM894.257 792.815l-.374-1.87c2.057-.374 4.114-1.309 5.61-2.805l1.309 1.309c-1.87 1.87-4.114 2.992-6.545 3.366zM898.184 787.018l-.748-1.683c2.057-1.122 3.927-2.244 5.61-3.927l1.309 1.309c-1.87 1.87-3.927 3.366-6.171 4.301zM901.186 775.49l6.187-3.495.92 1.629-6.187 3.495zM802.44 783.652c-.374-3.74-.561-7.667-.187-11.594l1.87.187c-.187 3.74-.187 7.48.187 11.22l-1.87.187zM806.528 790.415l.671-9.514 1.865.132-.67 9.513zM810 794.965l.737-7.82 1.861.176-.735 7.82zM815.53 800.482l-1.87-.374c.561-2.431.748-5.049.561-7.48l1.87-.187c.374 2.431.187 5.236-.561 8.041zM818.709 805.531l-1.683-.748c1.122-2.618 1.683-5.423 2.057-8.228l1.87.187a35.718 35.718 0 0 1-2.244 8.789zM820.843 809.665l1.889-8.2 1.822.42-1.889 8.2zM824 816.38l2.645-9.164 1.797.519-2.645 9.163zM829.555 821.613l-1.496-.935c1.496-2.618 2.805-5.423 3.74-8.228l1.683.561a52.064 52.064 0 0 1-3.927 8.602zM831.494 827.208l2.398-5.686 1.723.727-2.398 5.686zM834.349 833.19l3.217-6.96 1.697.785-3.217 6.96z"/>
            <path d="M795.334 782.156h8.789v1.87h-8.789zM799.822 790.197h7.293v1.87h-7.293zM805.245 794.872h6.358v1.87h-6.358zM808.05 799.547h6.358v1.87h-6.358zM818.522 806.092a23.843 23.843 0 0 0-7.293 0l-.374-1.87a18.536 18.536 0 0 1 7.854 0l-.187 1.87zM814.034 808.71h7.293v1.87h-7.293zM817.687 815.407l7.258-.711.183 1.861-7.258.711zM823.01 821.613h-2.618l.187-1.87c2.805.187 5.61 0 8.415-.187l.187 1.87c-2.244 0-4.301.187-6.171.187zM826.376 828.158h-1.683v-1.87c2.618 0 5.236 0 7.667-.374l.187 1.87c-1.87.374-4.114.374-6.171.374zM828.433 831.711h7.48v1.87h-7.48z"/>
        </g>
        <path fill="#B0DFEE" fill-rule="nonzero" d="M850.499 729.796c-.374-.748-1.122-1.309-1.87-1.122-.374.187-.748.374-.935.561-1.496 1.496-2.618 3.366-2.992 5.423.561-2.244.374-4.862-1.122-6.545-.187-.187-.374-.374-.561-.374-.374 0-.748.374-.935.748-.935 1.683-1.309 3.927-.748 5.797-.748-1.87-1.683-3.74-2.992-5.423a3.67 3.67 0 0 0-1.683-1.683c-.748-.374-1.683-.561-2.244-.187-1.309.748-1.122 2.618-.561 4.114.935 2.244 2.244 4.488 3.74 6.358-1.87-1.309-4.114-2.618-6.358-2.244-.374 0-.748.187-.935.561-.187.374 0 .935.187 1.496 1.683 2.618 6.358 4.301 9.537 4.675l4.675-1.309c2.057-1.496 4.675-4.301 5.61-6.545.748-1.122 1.122-2.805.187-4.301zM801.318 765.513c-.374-.561-1.122-.935-1.683-.748-.374.187-.561.374-.748.561-1.122 1.309-1.87 3.179-1.87 4.862.187-1.87-.187-4.114-1.683-5.423-.187-.187-.374-.187-.561-.187-.374 0-.561.374-.748.748-.561 1.496-.561 3.366 0 5.049-.935-1.496-1.87-2.992-2.992-4.301-.374-.561-.935-.935-1.683-1.309-.561-.374-1.496-.374-2.057.187-.935.748-.561 2.431 0 3.553a26.082 26.082 0 0 0 3.927 5.049c-1.683-.935-3.74-1.683-5.61-1.122-.374.187-.748.187-.748.561-.187.374.187.935.374 1.122 1.683 2.057 5.984 2.992 8.602 2.992l3.74-1.683c1.683-1.496 3.553-4.114 4.114-6.171.374-1.122.374-2.618-.374-3.74zM918.941 764.765c.187-.561.187-1.496-.374-1.87-.187-.187-.561-.187-.935-.374-1.87-.187-3.553.187-5.236 1.122 1.683-.935 3.366-2.431 3.553-4.301 0-.187 0-.374-.187-.561-.187-.374-.748-.374-.935-.187-1.683.374-3.179 1.309-4.114 2.618.748-1.496 1.496-3.179 1.87-4.862.187-.748.374-1.309.187-2.057s-.561-1.309-1.122-1.496c-1.309-.374-2.244.748-2.992 2.057-.935 1.87-1.683 3.927-2.057 5.984-.187-1.87-.561-4.114-2.057-5.236a1.428 1.428 0 0 0-.935-.374c-.374 0-.748.561-.748.935-.748 2.618.748 6.545 2.244 8.789l3.366 2.244c2.057.561 5.423.748 7.48 0 1.122-.561 2.431-1.309 2.992-2.431zM875.183 875.843c-.935 1.309-2.057 2.431-3.366 3.74-.748.748-1.496 1.309-2.244 2.057-1.122.935-2.431 2.057-3.553 2.992l-2.244 1.683-37.961-.187h-4.114l-2.244-1.683c-1.122-.935-2.244-1.683-3.179-2.805-.561-.561-1.309-1.122-1.87-1.683a30.517 30.517 0 0 1-3.179-3.74c-1.309-1.87-2.431-3.74-2.992-5.61-.374-1.122-.748-2.431-.374-3.366.187-.561.374-.935.748-1.496.935-.935 2.244-1.122 3.74-.935 3.179.374 5.984 1.496 8.602 3.179.374.187.748.374.935.748 3.366 2.244 6.358 5.423 9.163 8.415-3.553-7.48-5.984-15.521-7.106-23.749-.748-5.049 0-11.407 4.862-12.903 2.618-.748 5.423.374 7.293 2.431 1.87 1.87 2.992 4.488 3.927 7.106 2.431 6.358 4.114 12.903 5.236 19.635 0-3.74.935-7.48 2.431-11.033.187-.374.374-.561.374-.935l.561-1.122c.187-.374.561-.935.748-1.309.187-.374.374-.748.748-.935.748-.935 1.309-1.87 2.244-2.618.935-1.122 2.431-2.057 3.74-1.683.748.187 1.309.935 1.683 1.683.935 1.496 1.496 2.992 1.87 4.488 1.309 5.61-.561 11.968-2.992 17.391 2.992-6.358 7.854-11.781 14.025-15.334.748-.374 1.683-.935 2.431-1.122.374-.187.748-.187 1.122-.187.748 0 1.309.187 1.87.374 1.683.748 2.992 2.618 3.553 4.488 1.122 4.675-1.309 9.911-4.488 14.025z"/>
        <path fill="#B0DFEE" fill-rule="nonzero" d="M817.774 876.591l-2.805 2.805-.561.561-2.244 1.683c-1.309.935-2.805 1.87-4.301 2.618a22.325 22.325 0 0 1-2.992 1.496h-21.879l-3.366-1.683c-1.683-.748-3.179-1.683-4.675-2.618-3.553-2.057-6.732-4.488-8.789-6.919-.561-.748-.935-1.496-1.309-2.244-.935-2.057-1.122-4.301.561-5.61.748-.561 1.87-.748 2.805-.935 4.862-.374 9.724.935 13.464 3.74-2.244-4.488-3.553-9.537-3.553-14.586 0-2.618.561-5.61 2.618-7.293 2.431-1.87 5.984-1.122 8.228.748 2.244 1.87 3.74 4.675 4.862 7.293 1.122 2.244 2.244 4.675 2.244 7.106.561-5.236 3.366-10.098 7.667-13.09.748-.561 1.496-.935 2.431-.935 1.683 0 2.618 1.87 2.992 3.366 1.496 5.423.374 11.594-3.179 16.082l1.683-1.683c1.309-1.122 2.805-1.87 4.301-2.431.935-.374 1.87-.561 2.992-.748.935-.187 2.057-.187 2.992.187.748.374 1.309 1.122 1.87 1.87.374.561.748 1.309.935 1.87.935 3.553-.561 6.545-2.992 9.35z"/>
        <path fill="#52B5D7" fill-rule="nonzero" d="M480.239 645.085c-11.22 5.797-17.952 19.448-15.708 31.977-2.992 4.675-5.797 9.35-8.602 14.212 3.74-9.724 3.179-20.196-1.87-28.424-6.545 11.968-7.48 25.619-2.618 37.026-4.488 9.163-8.415 18.7-11.781 28.424 0-12.716-7.106-25.619-16.83-31.416 0 13.838 5.797 26.741 15.708 34.408-3.179 9.911-5.61 20.196-7.293 30.481-3.74-12.155-14.399-22.627-25.245-25.245 3.927 13.09 13.277 23.562 24.684 28.237-2.618 16.83-3.179 34.034-1.87 51.051l1.496-.187c-1.87-22.066-.187-44.319 4.675-65.637 6.171-.374 12.342-3.179 17.391-5.984 3.553-1.87 11.407-11.407 14.773-11.594-7.106.374-24.123 3.74-30.668 11.407 2.618-10.659 6.171-20.944 10.472-31.229 6.171-.187 12.529-3.179 17.952-5.984 3.553-1.87 11.407-11.407 14.773-11.594-6.545.374-21.692 3.366-28.985 9.724 4.675-10.098 10.285-19.822 16.456-29.172 10.472-5.984 15.521-18.326 13.09-30.481z"/>
        <path fill="#B0DFEE" fill-rule="nonzero" d="M499.5 829.654c-.187 3.179.187 6.358.374 9.537.187 2.057.374 3.927.374 5.984.187 4.675-.187 9.163-.935 13.838-.748 3.927-1.87 7.854-3.179 11.594-1.496 3.927-3.179 7.667-5.423 11.033-.187.374-.561.748-.748 1.309-.374.561-.561 1.122-.935 1.496l-28.611-.187c-.374-.561-.561-1.122-.935-1.496H455.368c-.187-.374-.374-.748-.748-1.122h-7.293c-.187 1.496-.187 2.992-.374 4.301-2.244-1.309-4.675-2.805-6.732-4.301h-16.456a56.557 56.557 0 0 1-6.171 3.927c-2.431 1.496-5.049 2.805-7.48 4.114-1.309-2.244-2.618-4.488-3.366-7.106-.187-.374-.187-.748-.374-1.122-3.179-10.285-1.309-22.066 4.862-30.855l1.683-2.244c2.618-3.179 5.984-6.171 8.789-9.537 1.309-1.683 2.618-3.553 3.366-5.423.561-1.683.935-3.366.935-5.236-.187-3.553-1.87-6.545-3.74-9.537-1.309-2.057-2.618-4.114-3.74-6.358-1.87-3.927-2.057-8.415-1.309-12.716 0-.561.187-.935.374-1.496.748-2.618 1.683-4.862 3.179-7.106a18.881 18.881 0 0 1 2.431-2.992 20.132 20.132 0 0 1 4.488-3.366c.374-.187.935-.561 1.496-.748.561-.187 1.122-.561 1.496-.748 1.496-.561 3.179-1.122 4.675-1.87 1.122-.374 2.057-.748 2.992-1.309 2.618-1.122 4.862-2.618 6.545-4.862 1.87-2.431 2.618-5.61 3.179-8.602.935-4.862 1.683-9.724 2.431-14.586.374-2.618.748-5.049 1.122-7.48.561-3.366 1.122-6.545 1.87-9.724.561-2.992 1.496-5.797 2.244-8.602 2.805-8.976 7.106-17.204 14.399-23.375 5.236-4.488 11.968-7.667 18.7-6.732h.374c11.781 1.87 18.326 15.521 17.578 27.302-.561 10.098-5.049 19.448-8.602 28.798-.561 1.683-1.309 3.366-1.87 5.049-1.309 3.74-2.431 7.854-2.057 11.781 0 .561.187 1.122.187 1.683.187 1.309.561 2.431 1.309 3.74.187.187.187.374.374.748 4.301 7.293 15.708 9.537 18.326 17.952 3.179 10.098-8.976 17.765-13.09 27.489-1.309 3.179-1.87 6.171-1.87 9.163z"/>
        <path stroke="#BEDEED" stroke-linecap="round" stroke-linejoin="round" stroke-width="1.834" d="M489.402 695.388c-.187.374-.187.561-.374.935-3.553 9.537-6.919 19.261-9.911 28.985-1.87 5.797-3.74 11.594-5.423 17.578l-2.805 9.537c-1.496 5.236-2.805 10.659-4.301 15.895-1.122 4.301-2.057 8.415-3.179 12.716-.935 4.301-2.057 8.789-2.992 13.09-.187.561-.187 1.122-.374 1.683-.935 4.114-1.683 8.228-2.431 12.342-.187 1.309-.561 2.618-.748 3.927-.561 3.366-1.309 6.732-1.87 10.098-.935 5.236-1.683 10.285-2.431 15.521-.374 1.683-.561 3.553-.748 5.236-.187.561-.187 1.309-.374 1.87 0 .374-.187.935-.187 1.309-.748 5.797-1.496 11.407-2.244 17.204 0 .374 0 .561-.187.935-.187 2.244-.561 4.488-.748 6.732-.374 3.553-.748 6.919-.935 10.472-.187 1.496-.187 2.805-.374 4.301"/>
        <path stroke="#BEDEED" stroke-linecap="round" stroke-linejoin="round" stroke-width="1.834" d="M500.996 722.877c-3.553 4.675-7.106 9.163-11.594 12.903-4.488 3.74-9.911 6.545-15.708 6.919M488.28 752.049c-5.049 7.667-12.716 13.651-21.318 17.017M481.735 778.977c-5.797 7.293-13.464 13.277-22.066 17.391M492.02 795.807c-10.472 11.407-23.375 20.57-37.4 26.741M486.784 820.304c-8.602 9.35-19.074 17.204-30.481 23.001-1.683.748-3.366 1.683-5.049 1.683M489.215 840.874c-11.407 11.594-24.497 22.814-40.205 27.115M485.101 861.818c-9.35 11.781-22.814 20.383-37.213 24.123M463.97 722.69c-.748 7.667 2.992 15.895 9.537 20.009M459.108 753.545c1.683 5.423 4.114 10.472 7.667 14.96M454.059 783.839c.748 4.301 3.179 8.415 6.919 10.846M438.538 797.303c3.179 9.724 9.163 18.7 16.83 25.245M429.001 814.507c4.114 7.48 8.976 14.586 14.212 21.318 2.431 3.179 5.423 6.545 9.35 7.667M430.871 846.11c3.179 8.041 10.098 14.586 18.513 17.391M446.953 885.941c-2.244-1.309-4.675-2.805-6.732-4.301a71.216 71.216 0 0 1-8.041-6.919c-2.805-2.992-5.61-5.984-7.854-9.537-.374-.561-.748-1.122-1.309-1.87l-.187-.187M491.646 714.275c-4.301 3.74-8.415 7.48-12.716 11.033M473.694 712.779c.561 4.114 2.431 8.041 5.236 11.22"/>
        <path fill="#52B5D7" fill-rule="nonzero" d="M566.072 718.95c-15.334.187-30.107 11.22-34.595 25.993-5.797 3.366-11.594 6.919-17.017 10.846 9.35-8.415 14.399-20.196 13.464-31.79-13.464 9.35-22.066 23.749-23.188 38.709-9.911 7.48-19.448 15.708-28.237 24.497 6.919-13.651 6.358-31.79-1.122-43.197-7.667 14.96-8.228 32.164-1.683 46.002-8.789 9.163-17.017 18.7-24.497 28.985 2.618-15.147-3.179-32.351-13.651-41.14-2.805 16.456 1.496 32.912 11.407 44.132a270.032 270.032 0 0 0-29.92 54.417l1.683.748c10.098-25.058 23.936-48.059 40.953-68.816 6.732 2.992 14.96 3.366 22.253 2.992 4.862-.187 18.7-6.171 22.44-4.675-8.041-3.553-28.424-9.163-39.457-4.301 8.789-10.098 18.139-19.448 28.424-28.05 6.919 3.179 15.334 3.553 22.627 3.179 4.862-.187 18.7-6.171 22.44-4.675-7.48-3.179-25.432-8.228-36.839-5.236 10.659-8.415 22.066-16.082 33.847-22.627 14.586-.935 26.741-11.594 30.668-25.993zM1136.369 600.525c13.493 7.345 21.293 23.977 18.341 39.112 3.675 5.8 6.976 11.619 10.09 17.448-4.174-11.766-3.346-24.543 2.878-34.419 7.505 14.587 8.386 31.394 2.545 44.995 5.275 11.334 9.814 22.893 13.624 34.865.318-15.371 9.236-31.007 21.061-37.619-.24 16.866-7.663 32.423-19.921 41.492a255.721 255.721 0 0 1 8.12 37.026c4.662-14.663 17.864-27.152 31.192-30.098-5.154 16-16.489 28.39-30.82 33.636 2.758 20.454 3.107 41.408 1.009 62.116l-1.878-.088c2.719-26.733 1.113-53.801-4.188-79.927-7.332-.552-14.82-4.092-21.002-7.7-4.246-2.4-13.482-14.274-17.61-14.432 8.65.67 29.298 5.205 37.09 14.534-3.113-12.944-7.15-25.654-11.923-38.137-7.51-.355-15.194-4.072-21.562-7.67-4.246-2.4-13.482-14.275-17.61-14.433 8.079.513 26.27 4.615 35.115 12.578-5.521-12.444-11.956-24.465-19.482-35.868-12.58-7.767-18.424-22.816-15.069-37.41z"/>
        <g fill-rule="nonzero">
            <path fill="#EAE4D8" d="M980.464 581.131c-.187-7.106-.374-15.147-2.244-22.066-6.545 2.057-13.838 1.87-20.383-.187-3.179-.935-4.488-4.675-6.358-7.293-3.74-5.797-5.236-14.212-9.537-19.635-3.179-3.927-11.594-5.984-8.789-10.659 3.74-1.87 5.984-8.415 6.171-12.529.374-4.114-.374-9.537-.935-13.651-2.057-16.83 4.675-29.359 16.83-40.953 12.155-11.781 29.92-17.391 46.563-14.773 14.399 2.244 23.749 16.269 30.107 29.359 6.358 13.09 8.228 28.237 4.862 42.262-1.87 8.228-5.423 15.895-6.919 24.31-2.992 15.147.935 31.416 10.472 43.384-5.423 3.553-11.22 5.797-17.391 7.667-6.545 1.87-13.09 3.553-20.009 4.114-6.732.374-13.838-.561-19.635-4.114-1.683-1.122-4.301-3.74-2.805-5.236z"/>
            <path fill="#EAE4D8" d="M911.461 477.533c7.854-1.309 15.521-2.431 23.375-3.74 1.122-.187 2.431-.374 3.366.374 1.122.748 1.122 2.431.561 3.553-.561 1.122-1.683 2.057-2.805 2.805-15.521 10.659-34.034 17.952-52.921 18.139-14.773 25.993-28.05 52.734-39.27 80.41 31.416 1.683 62.645 3.366 94.061 5.236 11.968.748 24.684 1.683 34.034 9.163 2.805 7.667.935 15.708-2.244 23.375-6.358 16.082-16.83 30.668-29.733 42.075-32.912-6.732-63.58-19.822-94.435-32.912-19.074-8.041-38.335-16.456-53.856-29.92-3.74-3.179-.748-9.35 1.496-13.838 18.139-36.839 43.01-70.125 72.93-97.988 5.61-5.236 10.846-11.407 17.952-14.025 7.106-2.618 14.773-3.179 22.44-3.927a668.209 668.209 0 0 1 27.302-1.683c3.74-.187 7.667-.374 11.033 1.496 1.122-.561 1.683 1.122.748 2.057-.748.935-2.244.935-3.366.935-3.927 0-7.667.748-11.22 2.244-2.805 1.122-5.423 2.618-8.041 3.74-3.366 1.683-7.667 1.87-11.407 2.431z"/>
            <path fill="#3C6995" d="M957.837 444.995c8.415-5.797 18.887-7.667 28.985-8.976 23.749-3.179 52.547 4.114 65.263 26.741 5.236 9.163 6.545 20.196 12.716 28.798 4.301 6.171 10.659 10.659 14.025 17.391 4.862 9.911 1.309 22.44-6.545 30.294-7.667 7.854-18.7 11.594-29.733 13.09-7.106.935-14.399 1.122-21.692.374-.561.187-1.309.187-1.87.374-14.96 2.992-32.538 5.423-43.758-5.049-5.797-5.423-8.602-13.838-7.293-21.692 7.293 1.87 15.521-5.423 14.399-12.903-1.122-7.48-10.846-12.155-17.391-8.415.935-6.358-2.805-12.529-7.106-17.578-4.301-4.862-9.163-9.724-11.033-15.895-3.179-9.911 2.618-20.757 11.033-26.554z"/>
            <path fill="#90B8D6" d="M1087.241 711.844v.561c-.935 13.651-2.431 28.611-3.927 43.758-.748 8.041-1.683 16.082-2.618 24.31-.187 2.057-.561 4.114-.748 6.358-.187 1.309-.374 2.431-.374 3.74 0 .374-.187.935-.187 1.496-2.057 17.578-4.301 34.408-6.171 49.181a3000.007 3000.007 0 0 0-3.366 24.871c0 .561-.187 1.122-.187 1.683-.748 5.61-1.496 10.285-2.057 14.025-.187 1.496-.374 2.805-.561 3.74 0 .561-.187 1.122-.187 1.683-.187 1.122-.187 1.87-.374 2.431-5.049 0-10.098 0-15.147-.187-.748-.561-1.309-1.496-1.87-2.431l-129.217-.561c0 .374-.187.748-.187 1.122l-5.797-.187v-.935-1.683-3.179-1.122c0-4.675.187-11.781.374-20.383 0-4.488.187-9.537.187-14.773 0-8.602.187-17.952.187-27.676v-2.244c0-10.098 0-20.57-.187-30.668 0-5.984-.187-11.781-.374-17.391 0-1.496 0-2.992-.187-4.488v-.561c0-1.309 0-2.431-.187-3.74 0-1.122 0-2.244-.187-3.366-.374-10.098-.935-19.074-1.87-25.619-1.122-8.976-1.683-17.017-1.87-24.497-.374-12.342 0-22.44.748-30.107.748-7.854 1.683-13.277 2.244-16.082v-.374-.561c-.187-.935-1.309-2.057-2.805-2.992-1.309-.935-2.992-1.87-4.675-2.805-1.309-.748-2.805-1.309-4.301-2.057a138.483 138.483 0 0 0-9.35-3.74c-2.244-.935-3.927-1.309-3.927-1.309 0-.561.187-1.122.187-1.683 3.366-30.855 25.058-58.905 26.18-60.588 0 0 24.31-2.431 43.384-3.179 7.667-.374 14.586-.374 18.7.374 1.683.187 2.805.561 3.553.935 2.431 1.683 12.716 1.309 24.31.187.935 0 2.057-.187 3.179-.374 5.423-.561 11.033-1.309 16.269-1.87a623.381 623.381 0 0 0 14.96-2.057c.374 0 .748-.187 1.122-.187h.187c.374 0 .561 0 .748-.187 1.87-.187 2.805-.374 2.805-.374h.187c1.122.935 9.163 8.041 18.139 19.822 2.618 3.553 5.423 7.48 8.228 11.968.187.374.374.561.561.935.748 1.122 1.496 2.431 2.244 3.74 3.179 5.61 6.171 11.781 8.602 18.513 1.496 4.114 2.992 8.602 4.114 13.09.561 2.057.935 4.114 1.309 6.358.561 2.992.935 6.171 1.309 9.35.187 1.309.187 2.431.374 3.74.561 11.781 0 28.798-1.496 48.246z"/>
            <path fill="#EACA44" d="M1114.917 841.809c3.74 6.545-.561 14.025-6.732 18.326-3.74 2.618-8.041 3.927-12.529 4.862-2.992.561-5.984.748-8.976.935-5.61.187-11.22.187-16.83 0-32.164-1.496-64.141-11.781-91.443-28.424-2.805-7.106-4.675-14.399-5.423-22.066-2.618-27.302 8.789-53.669 14.96-80.41 4.114-18.326 5.797-37.213 9.163-55.726 3.366-18.513 8.602-37.213 19.074-52.734 10.472-15.708 27.115-28.05 45.815-29.92h.187c6.171-.561 12.342-.187 18.326 1.309 1.122.187 2.244.561 3.366.748 43.571 12.155 58.531 70.499 64.328 115.379 5.61 44.506-6.545 91.256-33.286 127.721z"/>
            <path fill="#EACA44" d="M1024.97 624.702c-14.025-24.497-40.953-41.14-69.003-42.636 13.464-11.968 33.473-14.96 50.864-10.285 17.391 4.675 32.351 16.269 43.945 29.92-.187-.935-.561.187-1.309.748l-22.44 17.952c-1.87 1.496-3.927 3.366-3.74 5.797-.187-.561 1.496-.935 1.683-1.496zM1063.492 607.124c.187.561.374 1.309.935 1.683.561.374 1.309.374 2.057.374 6.545 0 13.277-.187 19.822-.187-3.553-12.342-11.968-22.814-22.44-30.107-3.74-2.618-7.667-4.862-12.155-5.236-13.838-1.683-5.797 5.984-.935 11.033 5.797 6.358 10.285 14.025 12.716 22.44zM978.407 796.742c-13.09-23.375-36.278-39.27-51.799-61.149-17.765-24.871-26.741-53.295-20.944-83.215 3.179 1.683 7.106 3.366 7.48 5.984 1.496 22.814 13.651 39.457 25.806 58.718 12.155 19.448 27.676 36.465 43.758 52.734.935.935 2.057 2.057 2.431 3.366.561 1.683.187 3.366-.374 5.236-1.683 6.545-3.366 13.09-4.862 19.448l-1.496-1.122z"/>
        </g>
        <path fill="#056998" fill-rule="nonzero" d="M1147.455 708.478c-27.302 10.472-59.092 8.041-84.337-6.358 0-10.472 4.862-21.692 11.033-30.294 3.366-4.488 7.48-8.415 12.529-11.033 3.553-1.87 7.667-2.805 11.594-3.553 7.106-1.309 14.586-2.057 21.692-.748s16.269 2.244 18.7 9.163c6.171 18.139 8.789 42.823 8.789 42.823z"/>
        <path stroke="#3C6995" stroke-width="1.848" d="M1147.642 708.665c-11.033 3.179-22.627 5.049-34.034 5.61-17.578.935-36.465-1.683-49.929-13.09M1123.519 629.564c-18.139-19.448-50.864-23.188-72.93-8.228-14.025 9.537-23.188 24.871-28.237 40.953-5.049 16.082-6.358 33.099-7.854 49.929-1.122 14.212-2.244 28.237-3.366 42.449"/>
        <path fill="#118CBE" fill-rule="nonzero" d="M1042.735 700.25c18.887 11.594 33.847 32.725 30.294 54.417-.935 5.984-3.366 11.781-4.301 17.952-2.057 13.09 2.618 26.18 1.683 39.27-1.122 13.651-8.789 26.741-20.196 34.221-11.407 7.48-26.367 9.537-39.457 5.049l31.977-150.909z"/>
        <path stroke="#1C4D66" stroke-width=".924" d="M1042.174 606.002c-18.326-21.879-47.872-34.034-76.483-31.416M1072.468 597.213c-5.423-10.098-13.838-18.513-23.749-24.31"/>
        <path stroke="#3C6995" stroke-width="1.848" d="M1067.606 781.034c22.066 11.594 48.059 15.895 72.743 12.342"/>
        <path stroke="#1C4D66" stroke-width=".924" d="M910.526 654.996c-2.244 58.157 26.928 97.614 70.686 122.859"/>
        <path fill="#056998" fill-rule="nonzero" d="M988.131 737.089c19.448 3.74 38.896 7.48 58.344 11.033-5.236 23.188-10.846 46.376-16.643 69.377-3.366 13.09-6.919 26.741-15.147 37.587l-36.278-17.578s-9.35-21.318-4.488-48.62c4.675-27.302 14.212-51.799 14.212-51.799z"/>
        <path fill="#056998" fill-rule="nonzero" d="M1134.739 654.996c-6.732-10.472-20.383-15.147-32.725-14.212-22.44 1.496-41.888 18.326-51.612 38.522-9.724 20.383-10.846 50.116-9.35 72.556l-14.399 1.683c.374-3.553.561-18.7.935-22.253 2.244-20.196 4.675-40.579 12.903-59.279 8.041-18.513 22.814-35.343 42.262-40.953 19.448-5.61 43.571 3.179 50.864 22.066l1.122 1.87z"/>
        <path stroke="#3C6995" stroke-width="1.848" d="M1141.471 787.766c-12.716.374-25.619.561-38.148-1.122-12.716-1.87-25.245-5.984-35.343-13.651"/>
        <path stroke="#3C6995" stroke-width="1.848" d="M1044.979 695.388c10.846 6.545 20.757 15.147 27.489 25.993 6.732 10.846 10.098 23.936 8.228 36.465-1.122 6.732-3.74 13.277-3.74 20.009 0 6.545 2.431 12.903 3.74 19.261 4.114 18.139-.374 38.709-14.025 51.425-13.464 12.716-36.278 15.708-51.051 4.301"/>
        <path stroke="#3C6995" stroke-width="1.848" d="M1123.145 628.442c-13.651-16.643-37.026-23.936-58.157-19.448-20.944 4.488-39.083 19.822-48.246 39.083-3.553 7.48-5.984 15.708-7.854 23.749-6.358 26.554-8.789 54.043-6.919 81.158"/>
        <path stroke="#1C4D66" stroke-width=".924" d="M1041.613 451.727c11.033 10.659 16.082 25.993 26.367 37.213 6.358 7.106 14.773 12.903 17.765 21.879 4.301 11.968-3.179 25.806-14.212 32.164-11.033 6.358-24.684 6.545-37.213 4.675M951.292 452.662c-4.675 4.675-6.919 11.407-6.358 17.952.561 6.545 4.301 12.716 9.724 16.269 7.48 5.049 17.765 5.61 24.497 11.781"/>
        <path stroke="#1C4D66" stroke-width=".924" d="M1044.418 453.597c8.602 13.838 18.7 26.741 30.107 38.335 4.114 4.114 8.415 8.041 10.846 13.277 3.366 7.106 2.618 16.082-1.87 22.627-4.488 6.545-12.716 10.285-20.57 9.537M949.048 456.963c-1.496 2.618-2.618 5.423-3.179 8.415-1.683 7.48-.935 15.521 3.179 22.066 4.114 6.358 11.781 10.659 19.261 9.724M942.316 506.144c3.366-2.431 8.602-2.057 11.594.748M966.439 509.51c1.309-.935 2.992-2.057 4.675-1.87 1.87 0 3.553 1.309 4.488 2.805 1.683 2.431 1.87 5.797.374 8.415-1.496 2.431-5.049 3.74-7.667 2.618"/>
        <path fill="#3C6995" fill-rule="nonzero" d="M943.251 505.583c0 .935-.187 1.87-.187 2.805s.187 1.87.748 2.618c.561.748 1.87.748 2.431 0 .187-.374.374-.748.374-1.122.374-1.87.187-3.74 0-5.61l-3.366 1.309zM949.422 494.737c2.805.748 5.61 2.431 7.106 5.049-4.301-2.431-9.724-2.992-14.399-1.496a1.192 1.192 0 0 1-1.122 0 1.028 1.028 0 0 1-.561-.935c-.561-3.553 6.732-2.992 8.976-2.618z"/>
        <g fill="#CEEBF4" fill-rule="nonzero">
            <path d="M746.527 398.619l-137.819-.561c-.561-8.415 1.496-17.765 8.602-21.879 7.106-4.301 16.83-4.114 23.749.374-3.366-10.285 2.431-24.31 10.659-31.416 8.228-7.106 20.757-8.602 30.481-3.74s16.082 15.708 15.334 26.554c4.488-5.61 12.716-6.545 18.887-2.805 6.171 3.74 8.976 12.155 6.171 18.7 4.675-4.675 11.781-5.984 17.578-2.618 5.984 3.366 8.228 11.033 6.358 17.391zM1152.317 421.994c-42.262-.561-84.711-1.309-126.973-1.87.187-7.293 4.488-14.399 11.033-17.952 6.358-3.553 14.773-3.366 21.131.374-1.87-10.472 2.805-22.066 11.594-28.05 8.789-5.984 21.131-6.358 30.294-.935s14.586 16.643 13.277 27.115c1.496-6.545 8.228-9.35 14.96-8.041 6.545 1.122 11.594 8.041 10.846 14.773 5.049-2.244 11.033-2.805 15.708.187 1.496 4.862.935 10.098-1.87 14.399z"/>
        </g>
        <g>
            <path fill="#B0DFEE" fill-rule="nonzero" d="M1175.692 841.435c0-4.488-.748-9.163 1.309-13.277 2.431-5.236 9.35-9.163 7.854-14.773-1.122-4.675-7.667-6.171-9.724-10.659-1.309-2.992-.374-6.358.935-9.35 2.431-5.984 5.984-11.781 6.732-18.326.748-6.545-2.431-14.025-8.789-15.521-3.74-.748-7.667.748-10.659 3.179-9.911 7.854-10.846 22.066-13.838 34.408-.374 1.683-.935 3.366-2.057 4.675-2.244 2.805-6.545 2.992-9.724 4.488-5.236 2.618-7.854 9.35-5.797 14.773 1.122 2.992 3.74 5.61 3.74 8.976 0 4.488-4.488 7.293-7.667 10.659-4.488 4.862-6.171 12.155-4.301 18.513 1.87 6.358 7.293 11.594 13.651 13.277l12.342 3.553c14.773-4.301 25.993-19.074 25.993-34.595z"/>
            <path stroke="#BEDEED" stroke-linecap="round" stroke-linejoin="round" stroke-width=".935" d="M1173.822 759.342c-15.708 36.652-25.619 75.548-29.733 115.005M1179.432 774.676c-2.057 2.431-4.114 4.862-6.732 6.732-2.618 1.87-5.61 3.366-8.789 3.366M1171.578 790.197c-2.992 4.114-7.293 7.106-12.155 8.789M1167.464 804.783c-3.366 3.927-7.667 6.919-12.529 8.789M1172.513 814.32c-5.984 5.984-13.277 10.659-21.131 13.651"/>
            <path stroke="#BEDEED" stroke-linecap="round" stroke-linejoin="round" stroke-width=".935" d="M1169.147 827.41c-5.049 4.862-10.846 8.976-17.204 11.781-.935.374-1.87.748-2.805.748M1169.895 838.817c-6.545 5.984-14.025 11.781-22.814 13.651M1167.09 850.224c-5.423 6.171-12.903 10.472-20.944 12.155M1159.236 773.554c-.748 4.301 1.122 8.789 4.675 11.22M1155.683 790.384c.748 2.992 2.057 5.797 3.74 8.415M1152.13 806.653c.187 2.431 1.496 4.675 3.553 5.984M1143.341 813.572c1.496 5.423 4.488 10.472 8.602 14.212M1137.731 822.735a96.033 96.033 0 0 0 7.106 11.968c1.309 1.87 2.805 3.74 4.862 4.488M1137.731 840.126c1.496 4.488 5.236 8.228 9.537 10.098M1133.056 849.102c2.992 5.423 7.48 10.098 12.716 13.277M1124.828 855.273c2.618 3.553 5.049 7.106 8.415 10.098 3.179 2.992 7.293 5.236 11.781 5.423M1174.57 769.814c-2.431 1.87-4.862 3.74-7.293 5.797M1164.846 768.318c.187 2.244 1.122 4.488 2.618 6.358M1163.724 862.379c-5.423 4.488-11.968 7.293-18.887 8.228"/>
        </g>
        <g fill="#B1DFEE" opacity=".373">
            <path d="M524.398 211c-44.442-.171-88.884-.34-133.327-.512-.476-8.042 1.361-17.07 8.322-21.16 6.96-4.093 16.21-3.943 23.034.369-3.196-9.961 2.378-23.522 10.331-30.337 7.955-6.817 20.074-8.33 29.468-3.681 9.393 4.65 15.513 15.19 14.878 25.631 4.406-5.369 12.25-6.328 18.227-2.775 5.974 3.553 8.697 11.705 6.055 18.122 4.583-4.596 11.404-5.725 17.015-2.457 5.61 3.27 7.762 10.563 5.997 16.8M734.677 95l-71.64-.274c-.255-4.298.733-9.124 4.473-11.31 3.74-2.187 8.71-2.107 12.376.198-1.717-5.324 1.278-12.572 5.551-16.215 4.275-3.643 10.786-4.452 15.834-1.967 5.047 2.485 8.335 8.12 7.994 13.7 2.367-2.87 6.582-3.383 9.794-1.484 3.21 1.899 4.673 6.256 3.253 9.686 2.462-2.456 6.127-3.06 9.142-1.313 3.015 1.747 4.171 5.646 3.223 8.979"/>
        </g>
        <path fill="#34A7D1" fill-opacity=".35" d="M809.293 34.874c-.054.252.186.566.388 1.126 1.02-.605 1.93-1.138 2.831-1.68 3.553-2.139 7.136-4.227 10.648-6.43 8.962-5.623 17.967-5.997 27.137-.488 1.887 1.134 3.957 1.963 5.943 2.932l.76-.984c-4.787-4.725-9.344-9.72-14.435-14.087-3.846-3.298-7.118-3.025-11.397-.1-3.875 2.648-7.565 5.568-11.44 8.216-4.218 2.884-6.174 2.731-9.78-.873-3.4-3.395-6.667-6.932-9.862-10.525-3.4-3.824-7.635-4.995-12.132-3.068-6.459 2.766-12.65 6.164-18.954 9.292l.562 1.147c2.081-.58 4.131-1.385 6.252-1.69 4.176-.603 8.412-1.417 12.587-1.25 6.053.242 10.647 4.126 15.292 7.598 3.623 2.709 6.709 5.687 5.6 10.864"/>
        <path fill="#B0DFEE" d="M116.775.818c-5.224-1.59-10.084-.906-14.356 2.447-2.606 2.044-4.985 4.41-7.28 6.808-4.514 4.714-8.794 9.653-13.361 14.313-5.554 5.666-9.986 6.159-16.824 2.158-1.604-.94-3.116-2.05-4.611-3.16a1446.305 1446.305 0 0 1-12.778-9.603c-4.633-3.522-9.586-3.668-14.69-1.304-2.285 1.059-4.692 2.124-6.58 3.73C17.789 23.45 9.44 30.876 1.067 38.275.606 38.68.452 39.432 0 40.33c8.803-3.722 17.1-7.311 25.461-10.742 9.681-3.972 19.372-3.647 28.611 1.139 6.604 3.42 12.843 7.542 19.236 11.365 1.083.648 2.12 1.372 2.94 1.907 3.328-4.166 6.128-8.251 9.523-11.763 3.501-3.62 7.511-6.766 11.424-9.966 6.598-5.397 14.241-7.906 22.709-6.91 8.053.946 16.044 2.426 24.056 3.706 2.024.324 4.027.78 6.04 1.174-6.147-6.416-25.46-17.06-33.225-19.423" filter="url(#a)" transform="translate(4 5)"/>
        <path fill="#EEF8FB" d="M35.162 338.798c2.069 2.08 4.883 3.378 7.607 5.202.669-2.677.551-4.994 1.564-5.782 4.7-3.656 9.575-6.973 15.812-7.653 5.659-.617 11.24-1.979 16.855-3.011l-.052-.923c-3.346-.604-6.726-1.055-10.03-1.846-7.213-1.729-14.069-2.091-19.618 4.213-.341.387-.86.615-1.304.904-7.768 5.061-8.867 4.81-13.96-3.168-.433-.677-.9-1.33-1.308-2.022C26.402 317.379 19.401 314.782 11 313c1.192 1.496 1.85 2.458 2.64 3.29 7.14 7.537 14.206 15.153 21.522 22.508" filter="url(#b)" transform="translate(4 5)"/>
    </g>
</svg>
